<?xml version="1.0" encoding="UTF-8"?>
<svg id="Layer_2" data-name="Layer 2" xmlns="http://www.w3.org/2000/svg" viewBox="0 0 722.01 45">
  <defs>
    <style>
      .cls-1 {
        fill: #fff;
      }
    </style>
  </defs>
  <g id="Layer_1-2" data-name="Layer 1">
    <g>
      <g>
        <path class="cls-1" d="M66.07,9.93l-15.4,13.86-15.34-13.9L0,41.77h17.41c6.19,0,10.39-3.42,12.05-4.88,1.3-1.14,8.22-7.4,11.19-10.08,1.28,0,2.31-1.04,2.31-2.31s-1.04-2.31-2.31-2.31-2.21.93-2.3,2.12c-2.63,2.38-9.24,8.36-11.4,10.32-2.72,2.47-6.38,3.77-9.08,3.77h-9.08l26.45-23.9,12.83,11.62-16.2,14.56s8.52,4.33,18.8,4.33,18.7-4.39,18.7-4.39l-16.18-14.54,12.83-11.57,26.6,23.95h-8.88c-4.23,0-7.47-2.11-9.69-4.1-1.74-1.56-8.25-7.46-10.98-9.93-.04-1.24-1.06-2.24-2.31-2.24s-2.31,1.04-2.31,2.31.97,2.24,2.19,2.31c2.14,1.92,6.52,5.84,10.86,9.78,6.07,5.5,11.18,5.22,13.29,5.22h16.56l-35.29-31.87ZM63.08,39.52s-4.86,2.07-12.41,2.07-12.46-2.07-12.46-2.07l12.46-11.24,12.41,11.24Z"/>
        <path class="cls-1" d="M42.4,11.9c.01,1.27,1.04,2.29,2.31,2.29.08,0,.16,0,.24-.01h.01s.01,0,.01,0c1.15-.13,2.05-1.11,2.05-2.3,0-.21-.03-.4-.08-.59l3.66-5.37,4.04,5.73c0,.08-.01.15-.01.23,0,1.09.75,1.99,1.76,2.24l.05.07.05-.05c.15.03.3.05.46.05,1.28,0,2.31-1.04,2.31-2.31,0-1.16-.85-2.11-1.96-2.28L50.68,0l-6.75,9.71c-.89.32-1.53,1.17-1.53,2.17,0,0,0,.01,0,.02h0s0,0,0,0Z"/>
      </g>
      <g>
        <g>
          <path class="cls-1" d="M121,45c-2.98,0-5.47-.25-7.45-.75-1.99-.5-3.58-1.29-4.77-2.38-1.19-1.09-2.04-2.52-2.53-4.29-.5-1.77-.74-3.94-.74-6.53v-12.76c0-2.54.25-4.71.74-6.5.5-1.79,1.34-3.23,2.53-4.32,1.19-1.09,2.78-1.89,4.77-2.38,1.99-.5,4.47-.75,7.45-.75h28.38v7.69h-28.38c-1.31,0-2.39.11-3.22.33-.83.22-1.5.57-2,1.04-.5.48-.83,1.11-1.01,1.91-.18.8-.27,1.79-.27,2.98v2.74h34.64v7.21h-34.64v2.86c0,1.23.09,2.25.27,3.04.18.8.51,1.43.98,1.91.48.48,1.14.81,2,.98.85.18,1.94.27,3.25.27h28.38v7.69h-28.38Z"/>
          <path class="cls-1" d="M194.1,45v-16.22h-29.81v16.22h-9.06V4.34h9.06v16.58h29.81V4.34h9v40.66h-9Z"/>
          <path class="cls-1" d="M208.95,45v-7.69h30.89c1.63,0,2.8-.23,3.52-.69.72-.46,1.07-1.38,1.07-2.77v-2.21c0-1.27-.36-2.18-1.07-2.71-.72-.54-1.87-.81-3.46-.81h-19.38c-2.27,0-4.14-.21-5.63-.63-1.49-.42-2.67-1.05-3.55-1.91-.88-.85-1.48-1.93-1.82-3.22-.34-1.29-.51-2.81-.51-4.56v-2.03c0-2.07.22-3.84.66-5.31.44-1.47,1.11-2.65,2.03-3.55.91-.89,2.11-1.55,3.58-1.97,1.47-.42,3.22-.63,5.25-.63h32.2v7.69h-31.36c-1.39,0-2.41.27-3.07.81-.66.54-.98,1.62-.98,3.25v1.31c0,1.27.3,2.18.89,2.71.6.54,1.63.81,3.1.81h19.02c2.27,0,4.18.19,5.75.57,1.57.38,2.85.98,3.85,1.82.99.83,1.71,1.91,2.15,3.22.44,1.31.66,2.88.66,4.71v3.22c0,1.91-.22,3.53-.66,4.86-.44,1.33-1.15,2.42-2.15,3.25-.99.83-2.28,1.45-3.85,1.85-1.57.4-3.49.6-5.75.6h-31.36Z"/>
          <path class="cls-1" d="M256.82,29.5v-7.04h19.68v7.04h-19.68Z"/>
          <path class="cls-1" d="M281.99,45V4.34h32.2c3.02,0,5.53.25,7.54.75,2.01.5,3.61,1.29,4.8,2.38,1.19,1.09,2.04,2.53,2.53,4.32.5,1.79.74,3.96.74,6.5v12.76c0,2.58-.25,4.76-.74,6.53-.5,1.77-1.34,3.2-2.53,4.29-1.19,1.09-2.79,1.89-4.8,2.38-2.01.5-4.52.75-7.54.75h-32.2ZM320.74,18.71c0-1.23-.11-2.28-.33-3.13-.22-.85-.6-1.53-1.13-2.03-.54-.5-1.24-.85-2.12-1.07-.87-.22-1.99-.33-3.34-.33h-22.78v25.1h22.78c1.23,0,2.29-.1,3.16-.3.87-.2,1.59-.55,2.15-1.04.56-.5.96-1.16,1.22-2,.26-.83.39-1.89.39-3.16v-12.04Z"/>
          <path class="cls-1" d="M346.68,45c-2.35,0-4.27-.2-5.78-.6-1.51-.4-2.71-.96-3.61-1.7-.89-.73-1.52-1.63-1.88-2.68-.36-1.05-.54-2.24-.54-3.55v-3.04c0-1.35.17-2.55.51-3.61.34-1.05.92-1.95,1.76-2.68s1.98-1.29,3.43-1.67c1.45-.38,3.29-.57,5.51-.57h23.91v-.72c0-2.07-.42-3.45-1.25-4.14-.83-.7-2.25-1.04-4.23-1.04h-29.63v-6.32h29.63c2.58,0,4.78.24,6.59.72,1.81.48,3.29,1.2,4.44,2.18,1.15.97,2,2.21,2.53,3.7.54,1.49.81,3.27.81,5.34v7.87c0,2.35-.23,4.31-.69,5.9-.46,1.59-1.25,2.88-2.39,3.88-1.13.99-2.64,1.7-4.53,2.12s-4.26.63-7.12.63h-17.47ZM369.99,30.39h-22.96c-1.03,0-1.85.23-2.44.69-.6.46-.89,1.32-.89,2.59v2.21c0,1.15.32,1.95.95,2.38.63.44,1.53.66,2.68.66h16.69c1.03,0,1.93-.08,2.68-.24.75-.16,1.37-.45,1.85-.86s.83-1,1.07-1.76c.24-.75.36-1.73.36-2.92v-2.74Z"/>
          <path class="cls-1" d="M423.59,36.41c0,1.59-.14,2.93-.42,4.03-.28,1.09-.83,1.98-1.64,2.65-.82.68-1.93,1.16-3.34,1.46-1.41.3-3.25.45-5.52.45h-27.78v-6.98h26.65c1.19,0,2.03-.2,2.51-.6.48-.4.72-1.15.72-2.27v-1.07c0-1.19-.23-1.94-.69-2.24-.46-.3-1.22-.45-2.3-.45h-18.13c-1.83,0-3.31-.18-4.44-.54-1.13-.36-2.02-.9-2.65-1.61-.64-.72-1.06-1.6-1.28-2.65-.22-1.05-.33-2.3-.33-3.73v-2.44c0-1.39.15-2.58.45-3.58.3-.99.78-1.8,1.46-2.41.68-.62,1.59-1.06,2.74-1.34,1.15-.28,2.6-.42,4.35-.42h29.63v6.74h-27.49c-.88,0-1.5.16-1.88.48-.38.32-.57.89-.57,1.73v1.49c0,.91.18,1.53.54,1.85.36.32.93.48,1.73.48h17.53c2.07,0,3.76.17,5.07.51,1.31.34,2.34.87,3.1,1.61.75.74,1.27,1.69,1.55,2.86.28,1.17.42,2.61.42,4.32v1.67Z"/>
          <path class="cls-1" d="M463.12,45v-18.01c0-1.35-.11-2.46-.33-3.34-.22-.87-.59-1.56-1.1-2.06-.52-.5-1.23-.83-2.15-1.01-.91-.18-2.05-.27-3.4-.27h-17.71v24.68h-8.88V2.25h8.88v10.43h17.95c3.02,0,5.53.25,7.54.75,2.01.5,3.61,1.29,4.8,2.38,1.19,1.09,2.04,2.53,2.53,4.32.5,1.79.74,3.97.74,6.56v18.3h-8.88Z"/>
          <path class="cls-1" d="M494.19,45c-2.98,0-5.47-.25-7.45-.75-1.99-.5-3.58-1.29-4.77-2.38-1.19-1.09-2.04-2.52-2.53-4.29-.5-1.77-.75-3.94-.75-6.53V2.25h8.88v10.43h17.95c3.02,0,5.52.25,7.51.75,1.99.5,3.58,1.29,4.77,2.38,1.19,1.09,2.04,2.53,2.53,4.32.5,1.79.75,3.97.75,6.56v4.35c0,2.58-.25,4.76-.75,6.53-.5,1.77-1.34,3.2-2.53,4.29-1.19,1.09-2.78,1.89-4.77,2.38-1.99.5-4.49.75-7.51.75h-11.33ZM512.19,26.99c0-1.39-.1-2.52-.3-3.4-.2-.87-.56-1.55-1.07-2.03-.52-.48-1.23-.81-2.15-.98-.91-.18-2.07-.27-3.46-.27h-17.65v10.55c0,1.31.1,2.4.3,3.25.2.86.56,1.53,1.07,2.03.52.5,1.22.85,2.12,1.04.89.2,2.04.3,3.43.3h10.73c1.39,0,2.54-.1,3.46-.3.91-.2,1.63-.55,2.15-1.04.52-.5.87-1.17,1.07-2.03.2-.85.3-1.96.3-3.31v-3.82Z"/>
          <path class="cls-1" d="M543.02,45c-2.98,0-5.47-.25-7.45-.75-1.99-.5-3.58-1.29-4.77-2.38-1.19-1.09-2.04-2.52-2.53-4.29-.5-1.77-.74-3.94-.74-6.53v-4.35c0-2.58.25-4.77.74-6.56.5-1.79,1.34-3.23,2.53-4.32,1.19-1.09,2.78-1.89,4.77-2.38,1.99-.5,4.47-.75,7.45-.75h10.79c3.02,0,5.52.25,7.51.75,1.99.5,3.58,1.3,4.77,2.41,1.19,1.11,2.04,2.56,2.53,4.35.5,1.79.75,3.98.75,6.56v4.29c0,2.58-.25,4.76-.75,6.53-.5,1.77-1.34,3.2-2.53,4.29-1.19,1.09-2.78,1.89-4.77,2.38-1.99.5-4.49.75-7.51.75h-10.79ZM560.49,26.99c0-1.35-.11-2.46-.33-3.34-.22-.87-.62-1.56-1.19-2.06-.58-.5-1.38-.83-2.42-1.01-1.03-.18-2.35-.27-3.94-.27h-8.41c-1.59,0-2.89.09-3.91.27-1.01.18-1.81.52-2.38,1.01-.58.5-.97,1.18-1.19,2.06s-.33,1.99-.33,3.34v3.82c0,1.35.11,2.46.33,3.31.22.86.62,1.53,1.19,2.03.58.5,1.37.85,2.38,1.04,1.01.2,2.32.3,3.91.3h8.41c1.59,0,2.9-.1,3.94-.3,1.03-.2,1.84-.55,2.42-1.04.58-.5.97-1.17,1.19-2.03.22-.85.33-1.96.33-3.31v-3.82Z"/>
          <path class="cls-1" d="M586.54,45c-2.35,0-4.27-.2-5.78-.6-1.51-.4-2.71-.96-3.61-1.7-.89-.73-1.52-1.63-1.88-2.68-.36-1.05-.54-2.24-.54-3.55v-3.04c0-1.35.17-2.55.51-3.61.34-1.05.92-1.95,1.76-2.68s1.98-1.29,3.43-1.67c1.45-.38,3.29-.57,5.51-.57h23.91v-.72c0-2.07-.42-3.45-1.25-4.14-.83-.7-2.25-1.04-4.23-1.04h-29.63v-6.32h29.63c2.58,0,4.78.24,6.59.72,1.81.48,3.29,1.2,4.44,2.18,1.15.97,2,2.21,2.53,3.7.54,1.49.81,3.27.81,5.34v7.87c0,2.35-.23,4.31-.69,5.9-.46,1.59-1.25,2.88-2.39,3.88-1.13.99-2.64,1.7-4.53,2.12s-4.26.63-7.12.63h-17.47ZM609.86,30.39h-22.96c-1.03,0-1.85.23-2.44.69-.6.46-.89,1.32-.89,2.59v2.21c0,1.15.32,1.95.95,2.38.63.44,1.53.66,2.68.66h16.69c1.03,0,1.93-.08,2.68-.24.75-.16,1.37-.45,1.85-.86s.83-1,1.07-1.76c.24-.75.36-1.73.36-2.92v-2.74Z"/>
          <path class="cls-1" d="M625.18,45v-18.72c0-2.42.28-4.49.83-6.2.56-1.71,1.44-3.11,2.65-4.2,1.21-1.09,2.77-1.9,4.68-2.41,1.91-.52,4.23-.77,6.98-.77h5.78v7.21h-5.55c-1.23,0-2.27.1-3.1.3-.83.2-1.5.54-2,1.01-.5.48-.86,1.13-1.07,1.97-.22.84-.33,1.89-.33,3.16v18.66h-8.88Z"/>
          <path class="cls-1" d="M665.78,45c-3.02,0-5.54-.25-7.54-.75-2.01-.5-3.61-1.29-4.8-2.38-1.19-1.09-2.04-2.52-2.53-4.29-.5-1.77-.75-3.94-.75-6.53v-4.35c0-2.58.25-4.77.75-6.56.5-1.79,1.34-3.23,2.53-4.32,1.19-1.09,2.79-1.89,4.8-2.38,2.01-.5,4.52-.75,7.54-.75h17.95V2.25h8.88v28.8c0,2.58-.25,4.76-.75,6.53-.5,1.77-1.34,3.2-2.53,4.29-1.19,1.09-2.78,1.89-4.77,2.38-1.99.5-4.49.75-7.51.75h-11.27ZM659.05,30.81c0,1.43.11,2.59.33,3.46.22.88.63,1.55,1.22,2.03s1.4.8,2.41.95,2.32.24,3.91.24h9.9c1.39,0,2.53-.09,3.43-.27.89-.18,1.6-.52,2.12-1.01.52-.5.87-1.17,1.07-2.03.2-.85.3-1.96.3-3.31v-10.55h-16.87c-1.55,0-2.83.08-3.85.24-1.01.16-1.82.48-2.41.95-.6.48-1,1.15-1.22,2.03-.22.88-.33,2.03-.33,3.46v3.82Z"/>
        </g>
        <g>
          <path class="cls-1" d="M702.12,2.19h-3.17V0h9.77v2.19h-3.17v6.49h-3.43V2.19Z"/>
          <path class="cls-1" d="M709.5,0h4.82l1.42,5.04h.02l1.42-5.04h4.82v8.67h-3.11V2.48h-.02l-1.82,6.2h-2.6l-1.82-6.2h-.02v6.2h-3.11V0Z"/>
        </g>
      </g>
    </g>
  </g>
</svg>